<svg width="512" height="512" viewBox="0 0 512 512" fill="none" xmlns="http://www.w3.org/2000/svg">
<path d="M495.9 166.6C499.1 175.3 496.4 185 489.5 191.2L446.2 230.6C447.3 238.9 447.9 247.4 447.9 256C447.9 264.6 447.3 273.1 446.2 281.4L489.5 320.8C496.4 327 499.1 336.7 495.9 345.4C491.5 357.3 486.2 368.7 480.1 379.7L475.4 387.8C468.8 398.8 461.4 409.2 453.3 419C447.4 426.2 437.6 428.6 428.8 425.8L373.1 408.1C359.7 418.4 344.9 427 329.1 433.5L316.6 490.6C314.6 499.7 307.6 506.9 298.4 508.4C284.6 510.7 270.4 511.9 255.9 511.9C241.4 511.9 227.2 510.7 213.4 508.4C204.2 506.9 197.2 499.7 195.2 490.6L182.7 433.5C166.9 427 152.1 418.4 138.7 408.1L83.1 425.9C74.3 428.7 64.5 426.2 58.6 419.1C50.5 409.3 43.1 398.9 36.5 387.9L31.8 379.8C25.7 368.8 20.4 357.4 16 345.5C12.8 336.8 15.5 327.1 22.4 320.9L65.7 281.5C64.6 273.1 64 264.6 64 256C64 247.4 64.6 238.9 65.7 230.6L22.4 191.2C15.5 185 12.8 175.3 16 166.6C20.4 154.7 25.7 143.3 31.8 132.3L36.5 124.2C43.1 113.2 50.5 102.8 58.6 93C64.5 85.8 74.3 83.4 83.1 86.2L138.8 103.9C152.2 93.6 167 85 182.8 78.5L195.3 21.4C197.3 12.3 204.3 5.1 213.5 3.6C227.3 1.2 241.5 0 256 0C270.5 0 284.7 1.2 298.5 3.5C307.7 5 314.7 12.2 316.7 21.3L329.2 78.4C345 84.9 359.8 93.5 373.2 103.8L428.9 86.1C437.7 83.3 447.5 85.8 453.4 92.9C461.5 102.7 468.9 113.1 475.5 124.1L480.2 132.2C486.3 143.2 491.6 154.6 496 166.5L495.9 166.6ZM256 336C277.217 336 297.566 327.571 312.569 312.569C327.571 297.566 336 277.217 336 256C336 234.783 327.571 214.434 312.569 199.431C297.566 184.429 277.217 176 256 176C234.783 176 214.434 184.429 199.431 199.431C184.429 214.434 176 234.783 176 256C176 277.217 184.429 297.566 199.431 312.569C214.434 327.571 234.783 336 256 336Z" fill="white"/>
</svg>
