<svg width="32" height="32" viewBox="0 0 32 32" fill="none" xmlns="http://www.w3.org/2000/svg">
<rect width="32" height="32" fill="#511477"/>
<path d="M6.54 15.24C6.48 14.8667 6.37333 14.5567 6.22 14.31C6.06667 14.0567 5.87 13.8667 5.63 13.74C5.39667 13.6133 5.12333 13.5533 4.81 13.56C4.52333 13.56 4.27 13.64 4.05 13.8C3.83667 13.96 3.73 14.1667 3.73 14.42C3.73 14.6267 3.78667 14.8067 3.9 14.96C4.02 15.1133 4.2 15.2567 4.44 15.39C4.68 15.5233 4.98333 15.6667 5.35 15.82C5.60333 15.92 5.86333 16.0367 6.13 16.17C6.39667 16.3033 6.64333 16.4633 6.87 16.65C7.09667 16.83 7.28 17.0433 7.42 17.29C7.56 17.53 7.63 17.8133 7.63 18.14C7.63 18.5333 7.52333 18.8833 7.31 19.19C7.09667 19.4967 6.79667 19.7367 6.41 19.91C6.03 20.0767 5.58333 20.16 5.07 20.16C4.80333 20.16 4.51333 20.1167 4.2 20.03C3.89333 19.95 3.60333 19.83 3.33 19.67L3.36 20.09H2.59V17.75H3.25C3.34333 18.31 3.55667 18.7333 3.89 19.02C4.23 19.3 4.63333 19.44 5.1 19.44C5.34 19.44 5.55 19.3967 5.73 19.31C5.91 19.2233 6.05 19.11 6.15 18.97C6.25 18.8233 6.3 18.6667 6.3 18.5C6.3 18.2667 6.21667 18.0733 6.05 17.92C5.89 17.7667 5.68667 17.6367 5.44 17.53C5.2 17.4233 4.95333 17.32 4.7 17.22C4.38 17.0867 4.08 16.9467 3.8 16.8C3.52667 16.6467 3.28667 16.4733 3.08 16.28C2.87333 16.0867 2.71333 15.8667 2.6 15.62C2.48667 15.3667 2.43 15.0767 2.43 14.75C2.43 14.5433 2.47 14.33 2.55 14.11C2.63 13.8833 2.76 13.6767 2.94 13.49C3.12 13.2967 3.36 13.14 3.66 13.02C3.96 12.9 4.33 12.84 4.77 12.84C5.03667 12.84 5.32667 12.88 5.64 12.96C5.96 13.04 6.23333 13.16 6.46 13.32L6.42 12.91H7.2V15.24H6.54ZM11.3177 19.35C11.5044 19.35 11.6377 19.3133 11.7177 19.24C11.8044 19.1667 11.8577 19.0633 11.8777 18.93C11.9044 18.79 11.9177 18.6333 11.9177 18.46L11.9077 17.04C11.9077 16.6067 11.8411 16.2867 11.7077 16.08C11.5811 15.8667 11.3777 15.76 11.0977 15.76C10.9311 15.76 10.7644 15.7967 10.5977 15.87C10.4377 15.9433 10.3011 16.03 10.1877 16.13V18.39C10.1877 18.4833 10.1844 18.6167 10.1777 18.79C10.1711 18.9567 10.1611 19.1167 10.1477 19.27C10.2611 19.2567 10.3811 19.25 10.5077 19.25C10.6344 19.2433 10.7311 19.24 10.7977 19.24V20H8.17773V19.35C8.3644 19.35 8.49773 19.3133 8.57773 19.24C8.6644 19.1667 8.71773 19.0633 8.73773 18.93C8.75773 18.79 8.76773 18.6333 8.76773 18.46V14.35C8.76773 14.23 8.77107 14.0933 8.77773 13.94C8.7844 13.78 8.7944 13.6267 8.80773 13.48C8.70107 13.4867 8.5744 13.4933 8.42773 13.5C8.28773 13.5 8.18107 13.5033 8.10773 13.51V12.75C8.42107 12.75 8.68107 12.7333 8.88773 12.7C9.10107 12.6667 9.26773 12.6267 9.38773 12.58C9.5144 12.5333 9.60107 12.49 9.64773 12.45H10.1877V15.4C10.3211 15.2933 10.4744 15.2 10.6477 15.12C10.8211 15.0333 10.9977 14.9667 11.1777 14.92C11.3577 14.8667 11.5144 14.84 11.6477 14.84C12.2611 14.84 12.6944 15.0167 12.9477 15.37C13.2011 15.7167 13.3311 16.2767 13.3377 17.05V18.39C13.3377 18.4833 13.3344 18.6167 13.3277 18.79C13.3211 18.9567 13.3111 19.1167 13.2977 19.27C13.4044 19.2567 13.5211 19.25 13.6477 19.25C13.7744 19.2433 13.8744 19.24 13.9477 19.24V20H11.3177V19.35ZM16.9987 20.16C16.5187 20.16 16.0853 20.0567 15.6987 19.85C15.312 19.6433 15.0053 19.35 14.7787 18.97C14.5587 18.5833 14.4487 18.13 14.4487 17.61C14.4487 17.0567 14.562 16.5733 14.7887 16.16C15.022 15.74 15.3287 15.4167 15.7087 15.19C16.0953 14.9567 16.5153 14.84 16.9687 14.84C17.4487 14.84 17.8787 14.9433 18.2587 15.15C18.6387 15.3567 18.9387 15.6533 19.1587 16.04C19.3787 16.42 19.4887 16.8767 19.4887 17.41C19.4887 17.97 19.382 18.4567 19.1687 18.87C18.9553 19.2833 18.662 19.6033 18.2887 19.83C17.9153 20.05 17.4853 20.16 16.9987 20.16ZM17.0387 19.45C17.3053 19.4433 17.5053 19.35 17.6387 19.17C17.7787 18.99 17.8753 18.7633 17.9287 18.49C17.982 18.2167 18.0087 17.94 18.0087 17.66C18.0087 17.4133 17.9887 17.1633 17.9487 16.91C17.9153 16.6567 17.8587 16.4267 17.7787 16.22C17.6987 16.0133 17.5887 15.8467 17.4487 15.72C17.3153 15.5933 17.1487 15.5333 16.9487 15.54C16.6887 15.5467 16.482 15.64 16.3287 15.82C16.182 16 16.0753 16.2267 16.0087 16.5C15.9487 16.7667 15.9187 17.0467 15.9187 17.34C15.9187 17.68 15.9553 18.0133 16.0287 18.34C16.102 18.6667 16.2187 18.9367 16.3787 19.15C16.5453 19.3567 16.7653 19.4567 17.0387 19.45ZM20.2127 19.35C20.3994 19.35 20.5327 19.3133 20.6127 19.24C20.6927 19.1667 20.7427 19.0633 20.7627 18.93C20.7894 18.79 20.8027 18.6333 20.8027 18.46V16.78C20.8027 16.66 20.8061 16.5267 20.8127 16.38C20.8194 16.2267 20.8294 16.0767 20.8427 15.93C20.7361 15.9367 20.6094 15.9433 20.4627 15.95C20.3227 15.95 20.2161 15.9533 20.1427 15.96V15.2H20.5427C20.8027 15.2 21.0394 15.1667 21.2527 15.1C21.4727 15.0333 21.6161 14.9667 21.6827 14.9H22.1727C22.1861 14.9667 22.1961 15.0933 22.2027 15.28C22.2094 15.46 22.2127 15.62 22.2127 15.76C22.3927 15.54 22.5627 15.3633 22.7227 15.23C22.8827 15.0967 23.0394 15 23.1927 14.94C23.3527 14.8733 23.5127 14.84 23.6727 14.84C23.9061 14.84 24.1094 14.9067 24.2827 15.04C24.4561 15.1667 24.5427 15.3767 24.5427 15.67C24.5427 15.77 24.5194 15.8767 24.4727 15.99C24.4261 16.0967 24.3527 16.1867 24.2527 16.26C24.1527 16.3333 24.0161 16.37 23.8427 16.37C23.7094 16.37 23.5727 16.33 23.4327 16.25C23.2927 16.17 23.2127 16.0167 23.1927 15.79C23.0594 15.79 22.9261 15.8467 22.7927 15.96C22.6594 16.0667 22.5394 16.1967 22.4327 16.35C22.3327 16.4967 22.2627 16.6333 22.2227 16.76V18.39C22.2227 18.4833 22.2194 18.6167 22.2127 18.79C22.2061 18.9567 22.1961 19.1167 22.1827 19.27C22.2894 19.2567 22.4061 19.25 22.5327 19.25C22.6661 19.2433 22.7661 19.24 22.8327 19.24V20H20.2127V19.35ZM26.9974 20.16C26.7974 20.16 26.6041 20.1367 26.4174 20.09C26.2374 20.0433 26.0708 19.9567 25.9174 19.83C25.7708 19.6967 25.6541 19.5033 25.5674 19.25C25.4808 18.9967 25.4374 18.66 25.4374 18.24L25.4574 15.83H24.7774V15C24.9841 14.9933 25.1841 14.9233 25.3774 14.79C25.5708 14.6567 25.7341 14.4833 25.8674 14.27C26.0074 14.0567 26.1008 13.8333 26.1474 13.6H26.8874L26.8774 15H28.1474V15.77L26.8774 15.8L26.8674 18.26C26.8674 18.4133 26.8808 18.5667 26.9074 18.72C26.9408 18.8667 27.0008 18.99 27.0874 19.09C27.1741 19.1833 27.3008 19.23 27.4674 19.23C27.5608 19.23 27.6874 19.1967 27.8474 19.13C28.0141 19.0633 28.1908 18.8967 28.3774 18.63L28.8574 19.08C28.6774 19.3467 28.4908 19.5533 28.2974 19.7C28.1041 19.8467 27.9174 19.9533 27.7374 20.02C27.5641 20.0867 27.4108 20.1267 27.2774 20.14C27.1441 20.1533 27.0508 20.16 26.9974 20.16Z" fill="white"/>
</svg>
